# xmcd
#
# Track frame offsets:
#	150
#	24801
#	45152
#	61226
#	93798
#	109082
#	132166
#	161413
#	181166
#	200390
#	233217
#	252780
#
# Disc length: 3658
#
# Revision: 1
# Processed by: cddbd v1.5.1PL0 Copyright (c) Steve Scherf et al.
# Submitted via: ExactAudioCopy v0.90b4
# Normalized: r0:TRMNUM
#
DISCID=850e480c
DTITLE=Popa Chubby - Peace, Love and Respect
DYEAR=2004
DGENRE=Blues
TTITLE0=Un American Blues
TTITLE1=The Man On The News
TTITLE2=Top Ten Reasons Why I Can`t Sleep At Night
TTITLE3=I`m Not Afraid
TTITLE4=Keep On The Sunny Side Of Life
TTITLE5=Young Men
TTITLE6=Midnight Ride_peace
TTITLE7=Like The Buddha Do
TTITLE8=The Devil Gonna Darg You Down
TTITLE9=Sweet Release
TTITLE10=Life Is A Beat Down
TTITLE11=See You In Sete
EXTD=
EXTT0=
EXTT1=
EXTT2=
EXTT3=
EXTT4=
EXTT5=
EXTT6=
EXTT7=
EXTT8=
EXTT9=
EXTT10=
EXTT11=
PLAYORDER=
